<svg height="511pt" viewBox="-2 1 511 511.99998" width="511pt" xmlns="http://www.w3.org/2000/svg"><path d="m208.175781 189.792969c-1.546875.003906-3.070312-.40625-4.414062-1.183594l-22.949219-13.242187c-4.207031-2.464844-5.617188-7.871094-3.152344-12.078126 2.441406-4.167968 7.78125-5.597656 11.980469-3.210937l22.949219 13.242187c4.222656 2.4375 5.667968 7.835938 3.230468 12.058594-1.574218 2.730469-4.488281 4.414063-7.644531 4.414063zm0 0" fill="#ffd643"/><path d="m433.28125 185.378906h-4.414062c0-58.503906-47.425782-105.929687-105.929688-105.929687s-105.933594 47.425781-105.933594 105.929687h-4.414062c-41.441406 0-75.035156 33.59375-75.035156 75.035156 0 41.441407 33.597656 75.035157 75.035156 75.035157h220.691406c41.441406 0 75.035156-33.59375 75.035156-75.035157 0-41.441406-33.59375-75.035156-75.035156-75.035156zm0 0" fill="#b8eaee"/><path d="m261.144531 185.378906h-17.65625c-.023437-36.242187 24.5-67.898437 59.59375-76.941406l4.414063 17.089844c-27.292969 7.042968-46.363282 31.664062-46.351563 59.851562zm0 0" fill="#a5d2d6"/><path d="m420.039062 291.308594h35.308594v17.65625h-35.308594zm0 0" fill="#a5d2d6"/><path d="m384.730469 291.308594h17.652343v17.65625h-17.652343zm0 0" fill="#a5d2d6"/><path d="m161.761719 123.585938c0 29.253906-23.714844 52.964843-52.964844 52.964843-29.253906 0-52.964844-23.710937-52.964844-52.964843 0-29.25 23.710938-52.964844 52.964844-52.964844 29.25 0 52.964844 23.714844 52.964844 52.964844zm0 0" fill="#fece2f"/><path d="m86.71875 132.414062c-4.875 0-8.828125-3.953124-8.828125-8.828124 0-17.0625 13.832031-30.894532 30.898437-30.894532 4.875 0 8.828126 3.949219 8.828126 8.824219s-3.953126 8.828125-8.828126 8.828125c-7.3125 0-13.242187 5.929688-13.242187 13.242188 0 4.875-3.953125 8.828124-8.828125 8.828124zm0 0" fill="#f3c52d"/><path d="m108.789062 44.136719c-4.875 0-8.828124-3.949219-8.828124-8.824219v-26.484375c0-4.875 3.953124-8.828125 8.828124-8.828125s8.824219 3.953125 8.824219 8.828125v26.480469c0 4.878906-3.949219 8.828125-8.824219 8.828125zm0 0" fill="#ffd643"/><path d="m32.332031 88.277344c-1.550781 0-3.074219-.40625-4.414062-1.183594l-22.953125-13.242188c-4.238282-2.410156-5.71875-7.800781-3.308594-12.039062 2.410156-4.234375 7.796875-5.71875 12.035156-3.308594.035156.019532.070313.039063.101563.058594l22.953125 13.242188c4.222656 2.4375 5.667968 7.835937 3.230468 12.058593-1.578124 2.730469-4.492187 4.414063-7.644531 4.414063zm0 0" fill="#ffd643"/><path d="m9.414062 189.792969c-4.875 0-8.828124-3.953125-8.824218-8.828125 0-3.152344 1.679687-6.066406 4.410156-7.644532l22.953125-13.242187c4.207031-2.464844 9.613281-1.054687 12.082031 3.152344 2.464844 4.207031 1.054688 9.613281-3.152344 12.082031-.035156.019531-.066406.039062-.101562.058594l-22.953125 13.238281c-1.339844.777344-2.863281 1.1875-4.414063 1.183594zm0 0" fill="#ffd643"/><path d="m108.789062 247.171875c-4.875 0-8.828124-3.953125-8.828124-8.828125v-26.480469c0-4.875 3.953124-8.828125 8.828124-8.828125s8.824219 3.953125 8.824219 8.828125v26.480469c0 4.875-3.949219 8.828125-8.824219 8.828125zm0 0" fill="#ffd643"/><path d="m185.226562 88.277344c-4.875-.003906-8.828124-3.953125-8.828124-8.828125 0-3.15625 1.683593-6.070313 4.414062-7.644531l22.953125-13.242188c4.203125-2.464844 9.613281-1.054688 12.078125 3.152344 2.464844 4.203125 1.054688 9.613281-3.152344 12.078125-.03125.019531-.066406.039062-.101562.058593l-22.949219 13.242188c-1.34375.777344-2.863281 1.183594-4.414063 1.183594zm0 0" fill="#ffd643"/><g fill="#c0f5f9"><path d="m252.316406 406.070312c-4.875 0-8.828125-3.953124-8.828125-8.828124v-26.484376c0-4.875 3.953125-8.828124 8.828125-8.828124s8.828125 3.953124 8.828125 8.828124v26.484376c0 4.875-3.953125 8.828124-8.828125 8.828124zm0 0"/><path d="m252.316406 512c-4.875 0-8.828125-3.953125-8.828125-8.828125v-8.828125c0-4.875 3.953125-8.824219 8.828125-8.824219s8.828125 3.949219 8.828125 8.824219v8.828125c0 4.875-3.953125 8.828125-8.828125 8.828125zm0 0"/><path d="m252.316406 467.863281c-4.875 0-8.828125-3.953125-8.828125-8.828125v-26.484375c0-4.875 3.953125-8.824219 8.828125-8.824219s8.828125 3.949219 8.828125 8.824219v26.484375c0 4.875-3.953125 8.828125-8.828125 8.828125zm0 0"/><path d="m199.351562 512c-4.878906 0-8.828124-3.953125-8.828124-8.828125v-26.480469c0-4.875 3.949218-8.828125 8.828124-8.828125 4.875 0 8.824219 3.953125 8.824219 8.828125v26.480469c0 4.875-3.949219 8.828125-8.824219 8.828125zm0 0"/><path d="m199.351562 450.207031c-4.878906 0-8.828124-3.953125-8.828124-8.828125v-17.65625c0-4.875 3.949218-8.824218 8.828124-8.824218 4.875 0 8.824219 3.949218 8.824219 8.824218v17.65625c0 4.875-3.949219 8.828125-8.824219 8.828125zm0 0"/><path d="m199.351562 397.242188c-4.878906 0-8.828124-3.953126-8.828124-8.828126v-17.65625c0-4.875 3.949218-8.828124 8.828124-8.828124 4.875 0 8.824219 3.953124 8.824219 8.828124v17.65625c0 4.875-3.949219 8.828126-8.824219 8.828126zm0 0"/><path d="m358.246094 406.070312c-4.875 0-8.828125-3.953124-8.828125-8.828124v-26.484376c0-4.875 3.953125-8.828124 8.828125-8.828124s8.828125 3.953124 8.828125 8.828124v26.484376c0 4.875-3.953125 8.828124-8.828125 8.828124zm0 0"/><path d="m358.246094 512c-4.875 0-8.828125-3.953125-8.828125-8.828125v-8.828125c0-4.875 3.953125-8.824219 8.828125-8.824219s8.828125 3.949219 8.828125 8.824219v8.828125c0 4.875-3.953125 8.828125-8.828125 8.828125zm0 0"/><path d="m358.246094 467.863281c-4.875 0-8.828125-3.953125-8.828125-8.828125v-26.484375c0-4.875 3.953125-8.824219 8.828125-8.824219s8.828125 3.949219 8.828125 8.824219v26.484375c0 4.875-3.953125 8.828125-8.828125 8.828125zm0 0"/><path d="m305.28125 512c-4.875 0-8.828125-3.953125-8.828125-8.828125v-26.480469c0-4.875 3.953125-8.828125 8.828125-8.828125s8.828125 3.953125 8.828125 8.828125v26.480469c0 4.875-3.953125 8.828125-8.828125 8.828125zm0 0"/><path d="m305.28125 450.207031c-4.875 0-8.828125-3.953125-8.828125-8.828125v-17.65625c0-4.875 3.953125-8.824218 8.828125-8.824218s8.828125 3.949218 8.828125 8.824218v17.65625c0 4.875-3.953125 8.828125-8.828125 8.828125zm0 0"/><path d="m305.28125 397.242188c-4.875 0-8.828125-3.953126-8.828125-8.828126v-17.65625c0-4.875 3.953125-8.828124 8.828125-8.828124s8.828125 3.953124 8.828125 8.828124v17.65625c0 4.875-3.953125 8.828126-8.828125 8.828126zm0 0"/><path d="m464.175781 406.070312c-4.875 0-8.824219-3.953124-8.824219-8.828124v-26.484376c0-4.875 3.949219-8.828124 8.824219-8.828124s8.828125 3.953124 8.828125 8.828124v26.484376c0 4.875-3.953125 8.828124-8.828125 8.828124zm0 0"/><path d="m464.175781 512c-4.875 0-8.824219-3.953125-8.824219-8.828125v-8.828125c0-4.875 3.949219-8.824219 8.824219-8.824219s8.828125 3.949219 8.828125 8.824219v8.828125c0 4.875-3.953125 8.828125-8.828125 8.828125zm0 0"/><path d="m464.175781 467.863281c-4.875 0-8.824219-3.953125-8.824219-8.828125v-26.484375c0-4.875 3.949219-8.824219 8.824219-8.824219s8.828125 3.949219 8.828125 8.824219v26.484375c0 4.875-3.953125 8.828125-8.828125 8.828125zm0 0"/><path d="m411.210938 512c-4.875 0-8.828126-3.953125-8.828126-8.828125v-26.480469c0-4.875 3.953126-8.828125 8.828126-8.828125s8.828124 3.953125 8.828124 8.828125v26.480469c0 4.875-3.953124 8.828125-8.828124 8.828125zm0 0"/><path d="m411.210938 450.207031c-4.875 0-8.828126-3.953125-8.828126-8.828125v-17.65625c0-4.875 3.953126-8.824218 8.828126-8.824218s8.828124 3.949218 8.828124 8.824218v17.65625c0 4.875-3.953124 8.828125-8.828124 8.828125zm0 0"/><path d="m411.210938 397.242188c-4.875 0-8.828126-3.953126-8.828126-8.828126v-17.65625c0-4.875 3.953126-8.828124 8.828126-8.828124s8.828124 3.953124 8.828124 8.828124v17.65625c0 4.875-3.953124 8.828126-8.828124 8.828126zm0 0"/></g></svg>