<?xml version="1.0" encoding="utf-8"?>
<!-- Generator: Adobe Illustrator 19.2.0, SVG Export Plug-In . SVG Version: 6.00 Build 0)  -->
<svg xmlns="http://www.w3.org/2000/svg" xmlns:xlink="http://www.w3.org/1999/xlink" version="1.1" id="airpressure" x="0px" y="0px" viewBox="0 0 220.0005 225.1683" enable-background="new 0 0 220.0005 225.1683" xml:space="preserve" width="512" height="512">
<g>
	<path fill="#5CB0FF" d="M103.9615,177.6683c-0.3633,0-0.7227,0.0117-1.0781,0.0273c-1.1055,0.0664-2.1602-0.3477-2.9492-1.1016   s-1.2383-1.8008-1.2383-2.8945c0-15.7461-13.5312-28.5312-30.1641-28.5312c-13.2266,0-24.7852,8-28.7695,19.9062   c-0.5938,1.7617-2.3555,2.9219-4.1719,2.7109c-0.8203-0.0781-1.6484-0.1172-2.4883-0.1172   c-13.8398,0-25.1016,11.1016-25.1016,24.75c0,14.0078,11.9336,25.2734,26.1914,24.7265c0.207-0.0156,0.4336-0.0039,0.6523,0.0234   h69.875c0.0977-0.0117,0.1953-0.0195,0.293-0.0273c10.6484-0.5391,18.9883-9.2031,18.9883-19.7226   C124.0005,186.5277,115.0123,177.6683,103.9615,177.6683z"/>
	<path fill="#D0E8FF" d="M114.9888,105.141c0.0977,0.0078,0.1992,0.0156,0.2969,0.0273h69.8828   c0.1523-0.0195,0.3047-0.0273,0.4609-0.0273c0.0586,0,0.121,0,0.1797,0.0039c14.1992,0.6211,26.1875-10.7188,26.1914-24.7265   c0-13.6485-11.2617-24.75-25.1016-24.75c-0.8398,0-1.6719,0.0391-2.4883,0.1172c-1.7969,0.1562-3.582-0.9414-4.1719-2.7109   c-3.9844-11.9062-15.543-19.9062-28.7695-19.9062c-16.6328,0-30.1641,12.7852-30.1641,28.5c0,1.0938-0.4492,2.1562-1.2383,2.9102   c-0.793,0.7539-1.8633,1.1719-2.9492,1.1172c-0.3555-0.0156-0.7148-0.0273-1.0781-0.0273c-11.0508,0-20.0391,8.8594-20.0391,19.75   C96.0005,95.9379,104.3404,104.6019,114.9888,105.141z"/>
	<path fill="#1C71DA" d="M106.481,169.7777c-2.0352-18.3047-18.2773-32.6094-37.9492-32.6094   c-15.5977,0-29.3906,8.9258-35.2578,22.5c-0.0586,0-0.1133,0-0.1719,0c-18.2539,0-33.1016,14.6914-33.1016,32.75   c0,18.0585,14.8477,32.75,33.1016,32.75c0.3164,0,0.6328-0.0039,0.9453-0.0117c0.1055,0.0078,0.2148,0.0117,0.3203,0.0117h70.8555   c0.2461,0,0.4883-0.0234,0.7266-0.0703c14.6523-1.0156,26.0508-13.0742,26.0508-27.6796   C132.0005,182.9574,120.7662,171.0433,106.481,169.7777z M105.0123,217.141c-0.0977,0.0078-0.1953,0.0156-0.293,0.0273h-69.875   c-0.2188-0.0273-0.4453-0.0391-0.6523-0.0234c-14.2578,0.5469-26.1914-10.7188-26.1914-24.7265   c0-13.6485,11.2617-24.75,25.1016-24.75c0.8398,0,1.668,0.0391,2.4883,0.1172c1.8164,0.2109,3.5781-0.9492,4.1719-2.7109   c3.9844-11.9062,15.543-19.9062,28.7695-19.9062c16.6328,0,30.1641,12.7852,30.1641,28.5312c0,1.0938,0.4492,2.1406,1.2383,2.8945   s1.8438,1.168,2.9492,1.1016c0.3555-0.0156,0.7148-0.0273,1.0781-0.0273c11.0508,0,20.0391,8.8594,20.0391,19.75   C124.0005,207.9379,115.6607,216.6019,105.0123,217.141z"/>
	<path fill="#1C71DA" d="M114.0279,113.098c0.2461,0.0469,0.4922,0.0703,0.7461,0.0703h70.8594   c0.1055,0,0.2148-0.0039,0.3203-0.0117c0.3125,0.0078,0.6289,0.0117,0.9453,0.0117c18.2539,0,33.1016-14.6914,33.1016-32.75   c0-18.0586-14.8477-32.75-33.1016-32.75c-0.0586,0-0.1133,0-0.1719,0c-5.8672-13.5742-19.6602-22.5-35.2578-22.5   c-19.6602,0-35.8984,14.293-37.9453,32.6094c-14.2852,1.2656-25.5234,13.1797-25.5234,27.6407   C88.0005,100.0199,99.3873,112.0746,114.0279,113.098z M116.0396,65.6683c0.3633,0,0.7227,0.0117,1.0781,0.0273   c1.0859,0.0547,2.1562-0.3633,2.9492-1.1172c0.7891-0.7539,1.2383-1.8164,1.2383-2.9102c0-15.7148,13.5312-28.5,30.1641-28.5   c13.2266,0,24.7852,8,28.7695,19.9062c0.5898,1.7695,2.375,2.8672,4.1719,2.7109c0.8164-0.0781,1.6484-0.1172,2.4883-0.1172   c13.8398,0,25.1016,11.1016,25.1016,24.75c-0.0039,14.0078-11.9922,25.3476-26.1914,24.7265   c-0.0587-0.0039-0.1211-0.0039-0.1797-0.0039c-0.1562,0-0.3086,0.0078-0.4609,0.0273h-69.8828   c-0.0977-0.0117-0.1992-0.0195-0.2969-0.0273c-10.6484-0.5391-18.9883-9.2031-18.9883-19.7226   C96.0005,74.5277,104.9888,65.6683,116.0396,65.6683z"/>
	<path fill="#1C71DA" d="M70.8404,112.1605l-39.2695,5.2148c-2.1875,0.2891-3.7305,2.3008-3.4375,4.4922   c0.2656,2.0117,1.9844,3.4727,3.9609,3.4727c0.1758,0,0.3516-0.0117,0.5312-0.0352l43.7773-5.8125   c1.1406-0.1523,2.1602-0.7852,2.7969-1.7422c0.6406-0.9531,0.8359-2.1406,0.543-3.25L68.4693,72.098   c-0.5703-2.1367-2.7617-3.4023-4.8945-2.8398c-2.1367,0.5703-3.4062,2.7617-2.8398,4.8945L70.8404,112.1605z"/>
	<path fill="#1C71DA" d="M3.9966,109.3402c0.1758,0,0.3516-0.0117,0.5312-0.0352l43.7812-5.8125   c1.1406-0.1523,2.1602-0.7852,2.7969-1.7422c0.6406-0.9531,0.8359-2.1406,0.543-3.25L40.3755,56.098   c-0.5664-2.1367-2.7578-3.3906-4.8945-2.8398c-2.1367,0.5703-3.4062,2.7617-2.8398,4.8945l10.1055,38.0078l-39.2734,5.2148   c-2.1875,0.2891-3.7305,2.3008-3.4375,4.4922C0.3013,107.8793,2.0201,109.3402,3.9966,109.3402z"/>
	<path fill="#1C71DA" d="M141.2544,146.348l39.2734-5.2148c2.1875-0.2891,3.7305-2.3008,3.4375-4.4922   c-0.2891-2.1914-2.3047-3.7305-4.4922-3.4375l-43.7812,5.8125c-1.1406,0.1523-2.1602,0.7852-2.7969,1.7422   c-0.6406,0.9531-0.8359,2.1406-0.543,3.25l11.2734,42.3984c0.4766,1.793,2.0938,2.9727,3.8633,2.9727   c0.3398,0,0.6875-0.043,1.0312-0.1328c2.1367-0.5703,3.4062-2.7617,2.8398-4.8945L141.2544,146.348z"/>
	<path fill="#1C71DA" d="M207.4732,157.2035l-43.7812,5.8125c-1.1406,0.1523-2.1602,0.7852-2.7969,1.7422   c-0.6406,0.9531-0.8359,2.1406-0.543,3.25l11.2734,42.3984c0.4766,1.793,2.0938,2.9727,3.8633,2.9727   c0.3398,0,0.6875-0.043,1.0312-0.1328c2.1367-0.5703,3.4062-2.7617,2.8398-4.8945l-10.1055-38.0039l39.2734-5.2148   c2.1875-0.2891,3.7305-2.3008,3.4375-4.4922C211.6763,158.4496,209.6646,156.9222,207.4732,157.2035z"/>
</g>
<path fill="#FF5D5D" d="M184.3859,194c-1.0234,0-2.0479-0.3906-2.8281-1.1719c-1.5625-1.5615-1.5625-4.0947,0-5.6562  l14.1426-14.1416c1.5625-1.5625,4.0957-1.5625,5.6562,0c1.5625,1.5615,1.5625,4.0947,0,5.6562l-14.1426,14.1416  C186.4328,193.6094,185.4094,194,184.3859,194z"/>
<path fill="#FF5D5D" d="M198.5285,194.001c-1.0234,0-2.0479-0.3906-2.8281-1.1719l-14.1426-14.1426  c-1.5625-1.5615-1.5625-4.0947,0-5.6562c1.5605-1.5625,4.0957-1.5625,5.6562,0l14.1426,14.1426  c1.5625,1.5615,1.5625,4.0947,0,5.6562C200.5764,193.6104,199.552,194.001,198.5285,194.001z"/>
<path fill="#00D40B" d="M154.3859,84c-7.7197,0-14-6.2803-14-14s6.2803-14,14-14s14,6.2803,14,14S162.1057,84,154.3859,84z   M154.3859,64c-3.3086,0-6,2.6914-6,6s2.6914,6,6,6s6-2.6914,6-6S157.6945,64,154.3859,64z"/>
<path fill="#FFC504" d="M15.6994,30.6279c-1.0605,0-2.0781-0.4219-2.8281-1.1719L1.5578,18.1416  c-1.5625-1.5615-1.5625-4.0947,0-5.6562L12.8713,1.1719c1.5605-1.5625,4.0957-1.5625,5.6562,0L29.841,12.4854  c1.5625,1.5615,1.5625,4.0947,0,5.6562L18.5275,29.4561C17.7775,30.2061,16.76,30.6279,15.6994,30.6279z M10.0422,15.3135  l5.6572,5.6572l5.6572-5.6572l-5.6572-5.6562L10.0422,15.3135z"/>
</svg>
