<svg height="512pt" viewBox="0 -62 512.001 512" width="512pt" xmlns="http://www.w3.org/2000/svg"><path d="m417.550781 269h-309.859375c-59.378906 0-107.691406-48.421875-107.691406-107.945312 0-59.519532 48.3125-107.941407 107.691406-107.941407 12.558594 0 25.074219 2.230469 36.84375 6.519531 24.777344-37.101562 66.324219-59.632812 111.464844-59.632812 30.777344 0 60.84375 10.714844 84.664062 30.167969 18.367188 15 32.449219 34.679687 40.789063 56.667969 11.363281-4.722657 23.578125-7.167969 36.097656-7.167969 52.078125 0 94.449219 42.464843 94.449219 94.664062s-42.371094 94.667969-94.449219 94.667969zm0 0" fill="#0064a8"/><path d="m417.550781 79.667969c-12.523437 0-24.734375 2.445312-36.097656 7.167969-8.339844-21.988282-22.421875-41.667969-40.789063-56.667969-23.820312-19.453125-53.886718-30.167969-84.664062-30.167969v269h161.550781c52.078125 0 94.449219-42.46875 94.449219-94.667969s-42.371094-94.664062-94.449219-94.664062zm0 0" fill="#004e8d"/><path d="m122 239h268v30h-268zm0 0" fill="#4cd9ff"/><path d="m172.605469 308.449219-21.210938-21.214844 33.234375-33.234375-33.234375-33.234375 21.210938-21.210937 54.449219 54.445312zm0 0" fill="#8ae7ff"/><path d="m241 120h30v268h-30zm0 0" fill="#8ae7ff"/><path d="m256 239h134v30h-134zm0 0" fill="#11cfff"/><g fill="#4cd9ff"><path d="m256 120h15v268h-15zm0 0"/><path d="m339.394531 308.449219-54.449219-54.449219 54.449219-54.445312 21.210938 21.210937-33.234375 33.234375 33.234375 33.234375zm0 0"/><path d="m256 225.054688-54.445312-54.449219 21.210937-21.210938 33.234375 33.234375 33.234375-33.234375 21.210937 21.210938zm0 0"/><path d="m289.234375 358.605469-33.234375-33.234375-33.234375 33.234375-21.210937-21.210938 54.445312-54.449219 54.445312 54.449219zm0 0"/></g><path d="m289.234375 358.605469 21.210937-21.210938-54.445312-54.449219v42.425782zm0 0" fill="#11cfff"/><path d="m310.445312 170.605469-21.210937-21.210938-33.234375 33.234375v42.425782zm0 0" fill="#11cfff"/></svg>