<svg height="512pt" viewBox="-35 0 512 512.00001" width="512pt" xmlns="http://www.w3.org/2000/svg"><path d="m442.109375 192.144531c0 50.457031-36.300781 91.363281-81.0625 91.363281h-265.3125c-52.867187 0-95.734375-48.308593-95.734375-107.902343 0-59.582031 42.867188-107.890625 95.734375-107.890625 7.371094 0 14.546875.9375 21.425781 2.710937 21.804688-42.117187 62.324219-70.425781 108.714844-70.425781 16.757812 0 32.742188 3.691406 47.351562 10.394531 35.371094 16.207031 62.710938 50.03125 73.460938 91.8125 4.660156-.9375 9.457031-1.425781 14.359375-1.425781 44.761719 0 81.0625 40.894531 81.0625 91.363281zm0 0" fill="#4f5263"/><path d="m273.226562 10.394531c-102.09375 0-109.914062 118.269531-109.914062 118.269531s-98.539062 4.210938-98.539062 76.640626c0 72.425781 98.539062 78.203124 98.539062 78.203124h-67.578125c-52.867187 0-95.734375-48.308593-95.734375-107.902343 0-59.582031 42.867188-107.890625 95.734375-107.890625 7.371094 0 14.546875.9375 21.425781 2.710937 21.804688-42.117187 62.324219-70.425781 108.714844-70.425781 16.757812 0 32.742188 3.691406 47.351562 10.394531zm0 0" fill="#33344a"/><path d="m296.128906 139.886719-153.972656 174.253906h38.234375l-55.863281 81.28125h40.101562l-63.417968 116.578125 152.015624-133.363281h-41.964843l67.148437-95.128907h-41.96875z" fill="#ffdf59"/></svg>