<svg height="480pt" viewBox="-29 0 480 480.00004" width="480pt" xmlns="http://www.w3.org/2000/svg"><path d="m263.855469 366.136719-3.0625-39.871094-4.792969-62.265625h-32l-4.785156 62.167969-3.070313 39.945312-8.144531 105.886719h64zm0 0" fill="#bddbff"/><path d="m272 200c.003906-3.34375-.539062-6.667969-1.601562-9.839844-1.328126-4.285156-3.597657-8.222656-6.636719-11.519531-6.042969-6.769531-14.6875-10.640625-23.761719-10.640625s-17.71875 3.871094-23.761719 10.640625c-3.039062 3.296875-5.308593 7.234375-6.636719 11.519531-1.0625 3.171875-1.605468 6.496094-1.601562 9.839844.011719 15.105469 10.582031 28.144531 25.359375 31.28125 4.375.957031 8.90625.957031 13.28125 0 14.777344-3.136719 25.347656-16.175781 25.359375-31.28125zm0 0" fill="#bddbff"/><path d="m263.761719 178.640625-7.761719-170.640625h-32l-7.761719 170.640625c6.042969-6.769531 14.6875-10.640625 23.761719-10.640625s17.71875 3.871094 23.761719 10.640625zm0 0" fill="#bddbff"/><path d="m272 200c-.011719 15.105469-10.582031 28.144531-25.359375 31.28125l151.597656 78.558594 16-27.679688-143.839843-92c1.0625 3.171875 1.605468 6.496094 1.601562 9.839844zm0 0" fill="#bddbff"/><path d="m208 200c-.003906-3.34375.539062-6.667969 1.601562-9.839844l-88.632812 56.6875-34.167969 21.855469-21.039062 13.457031 16 27.679688 22.238281-11.511719 36-18.640625 93.359375-48.40625c-14.777344-3.136719-25.347656-16.175781-25.359375-31.28125zm0 0" fill="#bddbff"/><g fill="#3d9ae2"><path d="m418.550781 275.425781-141.863281-90.738281c-1.273438-3.148438-2.972656-6.109375-5.046875-8.800781l-7.640625-168.246094c-.191406-4.277344-3.71875-7.64453125-8-7.640625h-32c-4.28125-.00390625-7.808594 3.363281-8 7.640625l-7.648438 168.296875c-2.074218 2.675781-3.773437 5.625-5.054687 8.757812l-78.152344 49.976563c-3.40625-11.242187-5.140625-22.925781-5.144531-34.671875h-16c.023438 14.816406 2.484375 29.53125 7.28125 43.550781l-20.679688 13.25c-6.980468-18.125-10.570312-37.378906-10.601562-56.800781h-16c-.003906 22.480469 4.320312 44.753906 12.742188 65.601562l-15.292969 9.824219c-3.605469 2.304688-4.757813 7.039063-2.617188 10.742188l16 27.671875c2.136719 3.703125 6.8125 5.070312 10.609375 3.105468l16.160156-8.394531c26.347657 33.613281 64.015626 56.503907 105.992188 64.410157l-7.59375 98.421874c-.171875 2.226563.59375 4.425782 2.113281 6.0625 1.519531 1.632813 3.652344 2.5625 5.886719 2.554688h64c2.234375.007812 4.367188-.921875 5.886719-2.554688 1.519531-1.636718 2.285156-3.835937 2.113281-6.0625l-7.566406-98.398437c31.4375-5.875 60.675781-20.214844 84.566406-41.480469l-10.640625-11.953125c-21.289063 18.925781-47.253906 31.808594-75.199219 37.3125l-1.863281-24.199219c20.308594-4.433593 39.332031-13.464843 55.605469-26.398437l-10-12.488281c-13.71875 11.011718-29.71875 18.839844-46.839844 22.910156l-4.0625-53.304688c-.324219-4.175781-3.8125-7.394531-8-7.382812h-32c-4.1875-.011719-7.675781 3.207031-8 7.382812l-4.089844 53.167969c-22.664062-5.488281-43.238281-17.46875-59.199218-34.472656l81.992187-42.476563c1.753906.253907 3.523437.386719 5.296875.398438 1.691406-.066406 3.375-.25 5.039062-.542969l149.519532 77.488281c3.796875 1.964844 8.472656.597657 10.609375-3.105468l16-27.671875c2.140625-3.703125.988281-8.4375-2.617188-10.742188zm-173.597656-51.953125c-3.265625.734375-6.648437.734375-9.914063 0-11.082031-2.367187-19.011718-12.140625-19.039062-23.472656.003906-2.53125.421875-5.042969 1.230469-7.441406 1-3.222656 2.71875-6.175782 5.027343-8.636719 4.546876-5.070313 11.042969-7.953125 17.851563-7.921875s13.277344 2.972656 17.777344 8.078125c2.269531 2.464844 3.953125 5.40625 4.921875 8.609375.789062 2.359375 1.191406 4.828125 1.191406 7.3125-.042969 11.339844-7.988281 21.113281-19.078125 23.472656zm-13.304687-207.472656h16.703124l6.679688 146.921875c-.191406-.082031-.390625-.105469-.582031-.179687-2.105469-.828126-4.28125-1.472657-6.496094-1.925782-.25-.046875-.503906-.074218-.753906-.121094-4.753907-.925781-9.644531-.925781-14.398438 0-.234375.046876-.472656.066407-.710937.113282-2.261719.460937-4.472656 1.121094-6.617188 1.96875-.160156.0625-.328125.078125-.480468.144531zm-114.191407 242.59375c3.015625 6.363281 6.519531 12.484375 10.488281 18.300781l-21.433593 11.105469c-3.449219-5.277344-6.585938-10.753906-9.390625-16.398438zm-32.601562 40.605469-8.351563-14.398438 6.976563-4.457031c2.660156 5.171875 5.578125 10.207031 8.742187 15.089844zm178.503906 164.800781h-46.71875l6.832031-88.800781c5.4375.511719 10.953125.800781 16.527344.800781s11.054688-.28125 16.527344-.800781zm-8.054687-104.761719c-5.074219.488281-10.167969.761719-15.304688.761719s-10.265625-.296875-15.304688-.800781l1.839844-23.902344c4.433594.429687 8.921875.679687 13.464844.679687 4.496094-.023437 8.984375-.273437 13.457031-.746093zm-23.898438-87.238281h17.1875l3.636719 47.328125c-4.039063.398437-8.109375.671875-12.230469.671875-4.085938 0-8.171875-.203125-12.238281-.617188zm-20.71875 60.734375-1.886719 24.167969c-36.460937-7.28125-69.253906-27.027344-92.746093-55.847656l21.945312-11.367188c19.046875 21.703125 44.503906 36.777344 72.6875 43.046875zm-68.367188-63.285156c-4.371093-6.140625-8.15625-12.679688-11.304687-19.527344l69.375-44.378906c0 .21875.121094.417969.152344.632812.3125 1.882813.765625 3.738281 1.351562 5.550781.160157.511719.234375 1.050782.417969 1.554688.8125 2.285156 1.835938 4.488281 3.046875 6.589844.28125.488281.648437.921875.953125 1.402344.960938 1.570312 2.03125 3.070312 3.199219 4.496093.527343.621094 1.121093 1.167969 1.671875 1.75 1.105468 1.175781 2.277344 2.285157 3.511718 3.320313.265626.222656.472657.496094.746094.703125zm252.800782 29.773437-130.617188-67.679687c.289063-.222657.511719-.519531.800782-.742188 1.175781-1.003906 2.292968-2.074219 3.351562-3.199219.609375-.632812 1.238281-1.21875 1.808594-1.890624 1.136718-1.375 2.179687-2.828126 3.121094-4.34375.335937-.527344.734374-1 1.046874-1.535157 1.207032-2.097656 2.226563-4.296875 3.039063-6.574219.183594-.515624.265625-1.066406.425781-1.601562.578125-1.804688 1.027344-3.648438 1.34375-5.519531 0-.214844.117188-.417969.152344-.632813l123.886719 79.199219zm0 0"/><path d="m128 64c0-17.671875-14.328125-32-32-32s-32 14.328125-32 32h16c0-8.835938 7.164062-16 16-16s16 7.164062 16 16-7.164062 16-16 16h-96v16h96c17.671875 0 32-14.328125 32-32zm0 0"/><path d="m144 112c0-8.835938 7.164062-16 16-16s16 7.164062 16 16-7.164062 16-16 16h-96v16h96c17.671875 0 32-14.328125 32-32s-14.328125-32-32-32-32 14.328125-32 32zm0 0"/><path d="m32 128h16v16h-16zm0 0"/><path d="m375.726562 208.65625c.175782-2.863281.273438-5.753906.273438-8.65625.21875-52.117188-29.546875-99.714844-76.503906-122.328125l-7 14.398437c41.425781 19.957032 67.691406 61.949219 67.503906 107.929688 0 2.558594-.078125 5.113281-.238281 7.640625zm0 0"/><path d="m400 200c0 2.597656-.0625 5.179688-.183594 7.753906l16 .796875c.136719-2.832031.199219-5.671875.199219-8.535156-.300781-77.882813-51.480469-146.414063-126.070313-168.816406l-4.527343 15.34375c67.789062 20.378906 114.300781 82.667969 114.582031 153.457031zm0 0"/></g></svg>